<!DOCTYPE svg PUBLIC "-//W3C//DTD SVG 1.1//EN" "http://www.w3.org/Graphics/SVG/1.1/DTD/svg11.dtd">
<!-- Uploaded to: SVG Repo, www.svgrepo.com, Transformed by: SVG Repo Mixer Tools -->
<svg fill="#000000" height="800px" width="800px" version="1.1" id="Layer_1" xmlns="http://www.w3.org/2000/svg" xmlns:xlink="http://www.w3.org/1999/xlink" viewBox="-51.2 -51.2 614.40 614.40" xml:space="preserve">
<g id="SVGRepo_bgCarrier" stroke-width="0" transform="translate(0,0), scale(1)">
<rect x="-51.2" y="-51.2" width="614.40" height="614.40" rx="307.2" fill="#ec7e7e" strokewidth="0"/>
</g>
<g id="SVGRepo_tracerCarrier" stroke-linecap="round" stroke-linejoin="round" stroke="#CCCCCC" stroke-width="3.07203"/>
<g id="SVGRepo_iconCarrier"> <g> <g> <path d="M511.206,307.719c-8.177-17.546-29.761-25.927-79.592-36.57c-3.82-0.816-7.844-1.657-13.053-2.734 c-1.169-0.241-5.569-1.148-9.174-1.891c-7.032-1.458-13.624-2.827-16.494-3.437c-15.837-3.366-28.73-6.359-41.102-9.631 c-4.941-1.307-9.738-2.651-14.41-4.032c1.11-3.024,0.459-6.549-1.969-8.976c-3.332-3.332-8.735-3.332-12.068,0l-3.418,3.418 c-4.797-1.648-9.435-3.352-13.921-5.116c1.751-3.234,1.263-7.359-1.47-10.092c-3.332-3.332-8.735-3.332-12.068,0l-2.989,2.989 c-4.271-2.011-8.384-4.094-12.338-6.26c2.718-3.351,2.519-8.283-0.6-11.401c-3.332-3.332-8.735-3.332-12.068,0l-2.303,2.303 c-6.286-4.241-12.107-8.761-17.48-13.603c-0.158-0.138-0.284-0.244-0.397-0.338c-0.033-0.028-0.063-0.052-0.095-0.077 c-0.061-0.05-0.12-0.098-0.172-0.137c-0.188-0.148-0.351-0.268-0.5-0.369c-1.14-0.832-2.51-1.932-4.258-3.512 c-3.598-3.252-7.215-7.156-10.592-11.689c-5.826-7.82-10.243-16.539-12.81-26.161c-0.012-0.043-0.021-0.088-0.033-0.131 c-0.218-0.823-0.424-1.652-0.615-2.489c-0.089-0.39-0.164-0.787-0.247-1.18c-0.105-0.497-0.215-0.991-0.311-1.492 c-0.516-2.729-0.889-5.527-1.106-8.394c-0.602-8.054-7.141-14.449-15.318-14.449h-63.275c-0.037,0-0.073,0.007-0.11,0.008H40.991 c-8.5,0-15.394,6.882-15.394,15.386c0,7.398-0.313,14.827-0.905,22.276c-0.017,0.134-0.043,0.264-0.054,0.399 c-1.594,19.651-5.239,39.465-10.835,59.32c-0.06,0.212-0.106,0.424-0.148,0.636c-1.377,4.844-2.857,9.686-4.466,14.525 C0.706,270.308-2.23,294.064,2.695,314.49C1.034,316.052,0,318.263,0,320.704v41.745c0,4.64,3.708,8.43,8.347,8.531 C9.225,371,9.225,371,13.4,371.092c5.714,0.127,8.902,0.198,14.287,0.319c15.386,0.346,32.531,0.737,50.995,1.165 c52.753,1.225,105.506,2.506,154.74,3.78c26.444,0.684,51.183,1.349,73.906,1.989c14.234,0.401,27.617,0.79,40.089,1.167 c70.495,2.128,118.763-10.729,149.105-32.562c12.643-9.1,15.477-17.209,15.479-35.458 C512.026,310.224,511.772,308.934,511.206,307.719z M406.032,283.259c8.99,1.864,18.636,3.863,22.103,4.604 c33.083,7.069,52.26,13.15,61.607,20.183c-5.516,1.926-12.504,3.862-21.122,5.711c-8.627,1.85-18.237,3.487-28.846,4.891 c-3.68,0.477-7.521,0.936-11.544,1.37c-19.168,2.071-40.911,3.443-65.357,4.036c-0.695,0.016-1.39,0.033-2.09,0.048 c-0.986,0.022-1.981,0.041-2.976,0.061c-24.131,0.455-51.06,0.175-80.979-0.947c14.154-14.625,50.47-23.684,98.034-26.758 C386.603,295.695,397.447,290.98,406.032,283.259z M236.808,253.718c3.333,3.332,8.735,3.332,12.068,0l15.771-15.771 c3.882,2.241,7.897,4.399,12.052,6.478l-9.67,9.67c-3.332,3.333-3.332,8.736,0,12.068s8.735,3.332,12.068,0l14.156-14.156 c4.302,1.802,8.74,3.54,13.308,5.223l-10.371,10.371c-3.332,3.332-3.332,8.735,0,12.068c3.332,3.333,8.735,3.333,12.068,0 l16.307-16.307c7.309,2.301,14.921,4.494,22.859,6.594c10.513,2.781,21.354,5.354,33.918,8.101c-2.443,0.731-4.98,1.2-7.586,1.369 c-61.063,3.947-104.565,16.122-116.988,42.951c-11.052-0.533-22.452-1.173-34.22-1.928c-0.051-0.003-0.103-0.007-0.154-0.01 c-2.808-0.18-5.636-0.367-8.485-0.56c-11.246-0.763-22.018-1.462-32.37-2.105c-0.164-0.01-0.331-0.021-0.495-0.031 c-2.3-0.143-4.572-0.281-6.83-0.418c-0.368-0.022-0.74-0.045-1.107-0.067c-2.1-0.127-4.174-0.25-6.236-0.372 c-0.515-0.03-1.034-0.061-1.547-0.092c-1.973-0.116-3.923-0.229-5.862-0.34c-0.568-0.033-1.139-0.066-1.705-0.098 c-1.877-0.107-3.734-0.212-5.58-0.314c-0.616-0.034-1.233-0.069-1.846-0.103c-1.794-0.099-3.57-0.196-5.334-0.291 c-0.632-0.034-1.265-0.068-1.893-0.102c-1.723-0.092-3.431-0.182-5.126-0.271c-0.665-0.035-1.328-0.069-1.988-0.103 c-1.65-0.085-3.286-0.169-4.909-0.251c-0.661-0.033-1.319-0.066-1.976-0.099c-1.631-0.081-3.25-0.161-4.853-0.239 c-0.604-0.029-1.204-0.058-1.804-0.087c-1.623-0.078-3.236-0.154-4.832-0.228c-0.567-0.026-1.128-0.052-1.691-0.078 c-1.606-0.074-3.203-0.146-4.78-0.216c-0.534-0.024-1.061-0.046-1.591-0.07c-1.591-0.07-3.174-0.139-4.737-0.205 c-0.483-0.02-0.958-0.04-1.438-0.06c-1.591-0.066-3.174-0.132-4.735-0.195c-0.404-0.016-0.8-0.031-1.202-0.047 c-1.633-0.065-3.258-0.129-4.86-0.189c-0.235-0.009-0.464-0.017-0.698-0.026c-1.744-0.066-3.477-0.13-5.183-0.191 c-0.001,0-0.003,0-0.004,0c-11.255-0.401-21.69-0.696-31.384-0.897c-0.151-0.003-0.306-0.007-0.457-0.01 c-1.355-0.028-2.688-0.053-4.013-0.077c-0.315-0.006-0.635-0.012-0.948-0.018c-1.241-0.022-2.462-0.041-3.677-0.06 c-0.375-0.006-0.755-0.012-1.128-0.018c-1.154-0.017-2.291-0.032-3.422-0.046c-0.421-0.005-0.845-0.011-1.263-0.016 c-1.106-0.013-2.197-0.024-3.282-0.034c-0.414-0.004-0.83-0.008-1.241-0.012c-1.063-0.009-2.113-0.016-3.156-0.023 c-0.429-0.003-0.858-0.005-1.283-0.008c-1.004-0.005-1.997-0.009-2.981-0.012c-0.446-0.001-0.892-0.003-1.334-0.003 c-0.969-0.002-1.928-0.003-2.879-0.002c-0.425,0-0.849,0.001-1.271,0.001c-0.948,0.001-1.888,0.004-2.818,0.008 c-0.182,0.001-0.369,0.001-0.55,0.001c-4.463-17.026-1.978-38.274,5.771-61.567c0.762-2.292,1.495-4.586,2.208-6.88 c13.901,4.315,29.041,3.79,43.442-1.332c20.186-7.192,55.403-3.555,96.844,7.233c9.283,2.422,31.806-8.182,69.792-30.037 c3.893,3.27,7.964,6.395,12.225,9.382l-13.085,13.085C233.476,244.983,233.476,250.386,236.808,253.718z M40.741,181.389 l0.484,0.11c4.478,1.021,8.894,2.099,13.169,3.216c12.781,3.33,43.089-10.734,82.986-35.376h59.267 c0.205,2.275,0.491,4.514,0.852,6.718c0.086,0.529,0.191,1.049,0.286,1.574c0.101,0.557,0.194,1.119,0.305,1.671 c0.202,1.007,0.424,2.005,0.658,2.996c0.015,0.063,0.027,0.126,0.042,0.189c3.069,12.893,8.801,24.463,16.481,34.669 c0.296,0.394,0.593,0.759,0.89,1.143c0.063,0.081,0.125,0.161,0.188,0.242c0.662,0.85,1.323,1.676,1.984,2.475 c0.227,0.275,0.453,0.546,0.679,0.814c0.348,0.412,0.695,0.822,1.042,1.22c0.515,0.592,1.026,1.164,1.535,1.722 c0.14,0.153,0.28,0.308,0.419,0.459c0.669,0.726,1.331,1.421,1.986,2.089c-27.867,15.712-49.492,25.992-51.811,25.387 c-44.686-11.632-82.373-15.524-106.872-6.796c-11.143,3.964-22.664,4.33-33.053,1.005 C36.184,211.739,39.032,196.542,40.741,181.389z M103.634,149.339c-7.398,4.086-14.321,7.661-20.512,10.566 c-12.863,6.037-22.247,8.863-24.421,8.296c-5.343-1.395-10.899-2.727-16.52-3.971c0.279-4.972,0.448-9.937,0.477-14.891H103.634z M486.552,333.098c-27.1,19.5-71.686,31.376-138.621,29.355c-12.483-0.377-25.878-0.767-40.123-1.168 c-22.737-0.64-47.489-1.305-73.945-1.99c-49.251-1.274-102.018-2.556-154.785-3.781c-18.468-0.429-35.617-0.82-51.008-1.166 c-4.264-0.096-7.15-0.16-11.004-0.246v-25.253c41.731-0.29,103.049,1.771,195.685,8.058c2.298,0.156,4.578,0.306,6.849,0.454 c0.264,0.017,0.526,0.034,0.79,0.051c1.725,0.112,3.443,0.221,5.153,0.328c1.066,0.067,2.125,0.132,3.184,0.197 c0.648,0.04,1.297,0.079,1.943,0.118c139.903,8.477,222.275,1.149,262.966-13.156 C492.488,328.209,490.372,330.348,486.552,333.098z"/> </g> </g> </g>
</svg>