<?xml version="1.0" encoding="iso-8859-1"?>
<!-- Uploaded to: SVG Repo, www.svgrepo.com, Generator: SVG Repo Mixer Tools -->
<svg height="800px" width="800px" version="1.1" id="Layer_1" xmlns="http://www.w3.org/2000/svg" xmlns:xlink="http://www.w3.org/1999/xlink" 
	 viewBox="0 0 512 512" xml:space="preserve">
<path style="fill:#F9D84E;" d="M394.819,101.58l-58.144,126.683L88.283,335.022L49.85,334.31l232.022-141.634l6.569-95.247
	c0.309-4.479,4.031-7.954,8.52-7.954h90.096C393.282,89.477,397.416,95.923,394.819,101.58z"/>
<path style="fill:#FFC20D;" d="M304.651,89.477h-7.69c-4.489,0-8.212,3.475-8.52,7.954l-6.569,95.247L49.85,334.31l246.94-133.804
	L304.651,89.477z"/>
<path style="fill:#E9E9EA;" d="M511.906,394.078l-17.94-120.265L493.29,171.11c-0.022-3.338-1.988-6.359-5.032-7.73l-102.353-46.122
	c-4.364-1.966-9.492,0.037-11.368,4.441l-40.124,94.26c-0.835,1.962-2.374,3.54-4.314,4.425l-218.307,99.578
	c-1.187,0.541-2.482,0.804-3.786,0.767l-91.624-2.59c-4.117-0.116-7.729,2.721-8.592,6.748l-7.601,35.471
	c-0.905,4.224,1.487,8.46,5.572,9.866l101.37,34.887c0.715,0.247,1.46,0.396,2.216,0.446l256.359,16.949
	c0.572,0.037,1.146,0.018,1.713-0.059l137.188-18.646C509.326,403.16,512.608,398.786,511.906,394.078z"/>
<path style="fill:#D3D3D5;" d="M511.906,394.078l-1.728-11.589c-1.322,1.689-3.273,2.889-5.569,3.201l-137.188,18.646
	c-0.568,0.077-1.141,0.097-1.714,0.059l-256.359-16.949c-0.755-0.05-1.5-0.2-2.216-0.446L20.59,357.003
	c-2.034-0.705-3.225-2.813-2.779-4.918l7.129-33.703l-8.556-0.242c-4.117-0.116-7.729,2.721-8.593,6.748l-7.601,35.471
	c-0.905,4.224,1.487,8.46,5.572,9.866l101.37,34.887c0.715,0.247,1.46,0.396,2.216,0.446l256.359,16.949
	c0.572,0.037,1.147,0.018,1.715-0.059l137.187-18.646C509.326,403.16,512.608,398.786,511.906,394.078z"/>
<path style="fill:#B169BF;" d="M445.378,250.025l48.34-13.811l-0.428-65.103c-0.022-3.338-1.988-6.359-5.032-7.73l-102.353-46.122
	c-4.364-1.966-9.492,0.037-11.368,4.441l-40.124,94.261c-0.835,1.962-2.374,3.54-4.314,4.425l-2.19,0.998l60.533,27.744
	c2.233,1.024,4.661,1.553,7.118,1.553h45.124C442.272,250.683,443.851,250.462,445.378,250.025z"/>
<path style="fill:#F9D84E;" d="M357.67,361.712l145.079-29.016l-8.783-58.883l-0.065-9.961l-358.288,63.695
	c0,0-26.3-6.78-27.604-6.818l-91.624-2.59c-4.117-0.116-7.729,2.721-8.592,6.748l-3.573,16.676l105.771,20.146H357.67V361.712z"/>
<path style="fill:#FFC20D;" d="M16.385,318.142c-4.117-0.116-7.729,2.721-8.592,6.748L4.22,341.566l15.206,2.896l5.516-26.078
	L16.385,318.142z"/>
<path style="fill:#844A8F;" d="M493.384,185.407l-91.792-26.226c-1.53-0.437-3.11-0.659-4.694-0.659
	c-7.024,0-13.249,4.216-15.858,10.739L369.74,197.51c-3.273,8.183,0.337,17.681,8.22,21.622l41.73,20.865
	c2.359,1.18,5.002,1.804,7.64,1.804c0.937,0,1.882-0.078,2.808-0.233l63.545-10.59L493.384,185.407z"/>
<path style="fill:#F9D84E;" d="M381.781,211.494l41.731,20.866c1.614,0.807,3.443,1.083,5.224,0.786l64.891-10.816l-0.185-28.022
	l-94.196-26.913c-4.211-1.203-8.65,0.974-10.277,5.04l-11.299,28.248C376.021,204.807,377.808,209.507,381.781,211.494z"/>
<polygon style="fill:#844A8F;" points="200.219,316.063 136.792,327.34 174.15,361.712 249.833,361.712 "/>
<polygon style="fill:#7DBB34;" points="186.765,361.712 237.22,361.712 189.648,317.943 147.363,325.46 "/>
<polygon style="fill:#844A8F;" points="344.58,361.712 357.67,361.712 409.086,351.429 343.052,290.672 279.623,301.947 "/>
<polygon style="fill:#7DBB34;" points="332.48,292.551 290.195,300.067 357.194,361.712 357.67,361.712 398.725,353.501 "/>
<g>
	<path style="fill:#B169BF;" d="M493.966,273.814l-0.065-9.961l-54.212,9.638c-14.124,14.246-22.234,33.548-22.234,54.058
		c0,7.326,1.048,14.581,3.096,21.587l82.198-16.44L493.966,273.814z"/>
	<polygon style="fill:#B169BF;" points="136.792,327.34 174.15,361.712 249.833,361.712 200.219,316.063 	"/>
	<polygon style="fill:#B169BF;" points="279.623,301.947 344.58,361.712 357.67,361.712 409.086,351.429 343.052,290.672 	"/>
</g>
<g>
	<circle style="fill:#7DBB34;" cx="324.216" cy="233.6" r="12.456"/>
	<circle style="fill:#7DBB34;" cx="275.107" cy="256.02" r="12.456"/>
	<circle style="fill:#7DBB34;" cx="232.052" cy="275.589" r="12.456"/>
	<circle style="fill:#7DBB34;" cx="188.996" cy="294.101" r="12.456"/>
	<circle style="fill:#7DBB34;" cx="145.929" cy="312.602" r="12.456"/>
</g>
<g>
	<path style="fill:#6C3D75;" d="M323.863,241.252c-2.004,0-4.01-0.747-5.564-2.25l-43.059-41.636
		c-3.179-3.074-3.265-8.142-0.19-11.322c3.073-3.179,8.141-3.266,11.322-0.19l43.059,41.636
		C334.488,232.379,330.938,241.252,323.863,241.252z"/>
	<path style="fill:#6C3D75;" d="M336.319,146.593c-9.358,0-38.606,11.357-51.244,16.448c-12.638-5.091-41.886-16.448-51.244-16.448
		c-13.834,0-25.088,11.255-25.088,25.088c0,13.834,11.255,25.088,25.088,25.088c9.358,0,38.606-11.357,51.244-16.448
		c12.638,5.091,41.886,16.448,51.244,16.448c13.834,0,25.088-11.255,25.088-25.088C361.407,157.848,350.152,146.593,336.319,146.593
		z M233.83,180.756c-5.004,0-9.074-4.071-9.074-9.074c0-5.004,4.071-9.074,9.074-9.074c3.349,0.013,15.601,4.015,29.207,9.074
		C249.432,176.741,237.182,180.743,233.83,180.756z M336.32,180.756c-3.349-0.013-15.601-4.015-29.207-9.074
		c13.605-5.059,25.855-9.061,29.206-9.074c5.004,0,9.074,4.071,9.074,9.074C345.393,176.685,341.322,180.756,336.32,180.756z"/>
	<path style="fill:#6C3D75;" d="M274.554,262.518c-2.751,0-5.428-1.419-6.918-3.964l-25.77-44.04
		c-2.233-3.817-0.95-8.721,2.866-10.955c3.818-2.233,8.72-0.951,10.955,2.866l25.77,44.04
		C284.517,255.695,280.644,262.518,274.554,262.518z"/>
	<path style="fill:#6C3D75;" d="M232.219,282.796c-2.809,0-5.535-1.481-7-4.109l-22.957-41.167
		c-2.154-3.863-0.769-8.739,3.093-10.893c3.861-2.153,8.739-0.769,10.893,3.093l22.957,41.167
		C242.12,276.115,238.238,282.796,232.219,282.796z"/>
	<path style="fill:#6C3D75;" d="M188.931,301.429c-2.78,0-5.481-1.449-6.959-4.035l-20.239-35.41
		c-2.195-3.839-0.862-8.731,2.979-10.925c3.838-2.195,8.73-0.862,10.925,2.979l20.239,35.41
		C198.862,294.674,194.988,301.429,188.931,301.429z"/>
	<path style="fill:#6C3D75;" d="M145.78,320.298c-2.782,0-5.486-1.452-6.963-4.043l-17.124-30.032
		c-2.191-3.841-0.852-8.731,2.989-10.921c3.841-2.191,8.732-0.852,10.921,2.989l17.124,30.032
		C155.709,313.551,151.833,320.298,145.78,320.298z"/>
</g>
</svg>